<?xml version="1.0" standalone="no"?>
   <!DOCTYPE svg PUBLIC "-//W3C//DTD SVG 1.1//EN" 
   "http://www.w3.org/Graphics/SVG/1.1/DTD/svg11.dtd"><svg id="svg" version="1.1" width="1998" height="1830" xmlns="http://www.w3.org/2000/svg"><path d="M1587.679 153.439 C 1562.611 157.033,1539.954 165.816,1518.093 180.414 C 1475.328 208.972,1458.389 243.473,1438.318 342.900 C 1414.298 461.895,1385.287 540.565,1339.437 611.042 C 1304.354 664.966,1251.552 719.087,1225.296 728.034 C 1205.015 734.944,1172.370 753.607,1151.128 770.434 C 1140.883 778.551,1122.375 791.604,1110.000 799.441 C 1085.636 814.870,1059.007 834.109,1046.886 845.038 C 1042.699 848.814,1030.549 855.437,1019.886 859.756 C 1009.224 864.075,991.725 874.025,981.000 881.866 C 970.275 889.707,952.725 900.494,942.000 905.837 C 931.275 911.179,915.075 920.447,906.001 926.433 C 896.926 932.418,869.865 947.054,845.864 958.958 C 804.990 979.229,800.583 982.276,776.303 1007.050 C 762.045 1021.598,746.352 1036.552,741.428 1040.281 C 736.504 1044.011,730.681 1051.130,728.488 1056.102 C 724.865 1064.312,718.452 1067.509,658.500 1090.982 C 515.316 1147.042,434.475 1180.083,421.500 1187.845 C 410.465 1194.447,349.611 1225.073,315.000 1241.444 C 285.488 1255.403,269.940 1269.198,275.783 1276.238 C 281.697 1283.364,298.697 1287.593,329.654 1289.637 L 358.500 1291.542 309.000 1316.732 C 281.775 1330.587,246.000 1347.733,229.500 1354.835 C 196.533 1369.025,181.464 1379.379,176.092 1391.532 C 174.155 1395.914,170.795 1401.356,168.625 1403.624 C 160.971 1411.626,165.580 1420.209,179.976 1424.762 C 187.388 1427.106,195.247 1430.819,197.441 1433.012 C 207.222 1442.793,276.186 1432.772,346.898 1411.294 C 422.791 1388.243,510.886 1365.487,624.250 1339.650 C 681.411 1326.623,683.746 1326.338,710.626 1329.119 C 740.087 1332.167,764.390 1337.227,769.822 1341.445 C 771.650 1342.864,779.750 1344.506,787.822 1345.095 C 795.895 1345.684,804.525 1346.970,807.000 1347.954 C 809.475 1348.937,814.875 1349.660,819.000 1349.560 C 835.434 1349.161,888.032 1352.666,890.741 1354.340 C 892.329 1355.321,897.424 1356.115,902.064 1356.104 C 906.704 1356.093,915.900 1356.796,922.500 1357.665 C 941.351 1360.149,969.114 1362.539,985.500 1363.088 C 993.750 1363.364,1005.095 1365.932,1010.711 1368.795 C 1016.327 1371.658,1025.777 1374.047,1031.711 1374.105 C 1037.645 1374.163,1050.695 1375.970,1060.711 1378.121 C 1071.331 1380.401,1081.663 1381.017,1085.499 1379.598 C 1089.116 1378.260,1096.072 1377.964,1100.957 1378.941 C 1109.309 1380.612,1109.575 1381.093,1105.419 1387.026 C 1100.435 1394.142,1099.408 1405.338,1104.000 1402.500 C 1105.653 1401.478,1107.091 1403.756,1107.202 1407.573 C 1108.153 1440.090,1115.507 1452.017,1166.965 1504.500 C 1191.232 1529.250,1211.910 1551.824,1212.916 1554.665 C 1218.337 1569.964,1201.299 1586.730,1173.579 1593.375 C 1165.835 1595.231,1156.510 1598.606,1152.856 1600.875 C 1149.201 1603.144,1142.217 1605.000,1137.336 1605.000 C 1128.380 1605.000,1110.000 1617.595,1110.000 1623.732 C 1110.000 1625.491,1112.469 1624.696,1115.486 1621.965 C 1122.952 1615.209,1138.919 1615.714,1148.181 1623.000 C 1152.377 1626.300,1157.990 1629.016,1160.655 1629.035 C 1163.320 1629.054,1177.737 1622.935,1192.693 1615.437 C 1207.649 1607.939,1224.745 1601.015,1230.685 1600.051 C 1240.357 1598.482,1241.951 1599.203,1245.963 1606.962 C 1252.769 1620.123,1264.989 1631.192,1292.770 1649.359 C 1309.712 1660.438,1320.943 1665.801,1326.850 1665.633 C 1333.169 1665.453,1336.092 1667.026,1337.181 1671.191 C 1339.120 1678.606,1344.000 1678.764,1344.000 1671.413 C 1344.000 1664.964,1328.920 1644.997,1319.151 1638.510 C 1310.039 1632.459,1293.000 1616.297,1293.000 1613.705 C 1293.000 1612.540,1298.738 1613.301,1305.750 1615.397 C 1312.763 1617.492,1329.300 1620.189,1342.500 1621.390 C 1355.700 1622.591,1380.675 1625.443,1398.000 1627.728 C 1443.471 1633.725,1457.103 1633.356,1461.696 1626.000 C 1466.474 1618.349,1474.349 1618.349,1482.000 1626.000 C 1486.052 1630.052,1488.000 1630.690,1488.000 1627.965 C 1488.000 1615.252,1450.716 1605.215,1402.929 1605.065 C 1385.419 1605.010,1382.629 1604.294,1384.179 1600.255 C 1385.181 1597.645,1386.000 1594.101,1386.000 1592.380 C 1386.000 1590.502,1389.601 1589.970,1395.000 1591.050 C 1405.475 1593.145,1406.942 1588.786,1397.469 1583.716 C 1393.203 1581.433,1382.018 1580.778,1365.219 1581.827 C 1335.796 1583.664,1308.653 1579.809,1292.027 1571.432 C 1282.596 1566.679,1281.194 1564.882,1284.145 1561.326 C 1289.040 1555.427,1302.013 1555.870,1306.561 1562.091 C 1310.961 1568.108,1320.180 1568.334,1366.153 1563.556 C 1384.915 1561.606,1401.770 1558.220,1405.773 1555.597 C 1412.334 1551.298,1413.591 1551.664,1427.337 1561.879 C 1451.007 1579.469,1473.938 1587.726,1500.535 1588.238 C 1518.417 1588.581,1524.960 1589.939,1529.785 1594.305 C 1535.885 1599.826,1536.000 1599.813,1536.000 1593.602 C 1536.000 1589.602,1530.760 1583.219,1521.750 1576.245 L 1507.500 1565.215 1536.000 1567.188 C 1551.675 1568.274,1570.644 1569.939,1578.154 1570.888 C 1589.887 1572.372,1593.109 1571.521,1601.045 1564.843 L 1610.281 1557.071 1618.141 1563.253 C 1622.463 1566.654,1626.000 1568.242,1626.000 1566.783 C 1626.000 1562.503,1614.722 1551.634,1608.101 1549.532 C 1604.746 1548.467,1602.000 1546.337,1602.000 1544.798 C 1602.000 1543.238,1586.401 1541.907,1566.750 1541.789 C 1547.363 1541.673,1534.110 1540.556,1537.301 1539.307 C 1548.907 1534.762,1535.050 1531.943,1492.510 1530.196 C 1457.879 1528.773,1448.579 1527.414,1441.434 1522.732 C 1425.765 1512.466,1400.106 1490.940,1367.508 1460.714 C 1327.052 1423.203,1323.656 1415.965,1328.586 1377.769 C 1330.815 1360.505,1334.807 1345.854,1340.238 1335.004 C 1347.850 1319.798,1349.797 1318.069,1365.000 1313.013 C 1422.500 1293.890,1473.282 1270.095,1513.815 1243.282 C 1541.031 1225.279,1579.421 1188.870,1606.900 1155.000 C 1658.566 1091.319,1686.060 1030.710,1706.244 936.000 C 1713.993 899.639,1714.218 895.769,1713.630 808.615 C 1712.838 691.083,1705.916 633.935,1681.782 545.643 C 1657.013 455.030,1651.503 428.437,1651.708 400.500 C 1651.978 363.562,1655.206 358.189,1687.802 340.421 C 1711.665 327.413,1715.355 326.298,1733.965 326.474 C 1755.261 326.674,1781.089 333.876,1806.273 346.638 C 1814.139 350.624,1821.515 355.406,1822.663 357.263 C 1826.929 364.166,1829.212 353.409,1826.091 341.113 C 1823.927 332.587,1818.817 325.075,1809.453 316.654 C 1770.724 281.823,1755.761 262.929,1738.946 227.625 C 1715.861 179.155,1690.997 159.935,1642.685 153.216 C 1616.842 149.621,1614.233 149.632,1587.679 153.439 M1656.961 160.486 C 1695.927 170.635,1712.932 185.719,1734.367 229.150 C 1742.415 245.457,1749.000 259.295,1749.000 259.900 C 1749.000 260.505,1745.558 261.000,1741.351 261.000 C 1722.558 261.000,1706.229 279.655,1716.361 289.550 C 1722.080 295.136,1758.607 314.168,1777.165 321.232 C 1785.599 324.442,1795.875 329.838,1800.000 333.222 L 1807.500 339.376 1800.000 337.319 C 1795.875 336.187,1779.533 329.353,1763.683 322.131 C 1747.834 314.909,1733.323 309.000,1731.437 309.000 C 1729.550 309.000,1722.443 303.600,1715.642 297.000 C 1708.841 290.400,1701.752 285.056,1699.888 285.125 C 1698.025 285.194,1701.563 289.724,1707.750 295.193 C 1713.938 300.661,1719.000 306.485,1719.000 308.134 C 1719.000 309.783,1726.088 313.195,1734.750 315.717 L 1750.500 320.302 1734.000 320.640 C 1720.510 320.916,1711.754 323.841,1686.000 336.673 C 1654.872 352.183,1654.123 352.382,1622.599 353.504 C 1591.799 354.601,1590.005 354.309,1570.615 345.055 C 1549.139 334.805,1541.224 334.379,1557.592 344.353 C 1580.830 358.514,1621.061 364.439,1645.800 357.344 L 1655.061 354.688 1650.916 366.721 C 1648.636 373.338,1646.694 389.721,1646.601 403.127 C 1646.455 424.044,1649.832 440.898,1670.418 522.000 C 1704.733 657.189,1708.376 684.635,1708.445 808.500 C 1708.499 906.215,1708.392 907.966,1700.171 943.357 C 1677.205 1042.221,1642.681 1110.452,1582.581 1175.752 C 1520.830 1242.847,1473.718 1270.482,1344.000 1315.705 C 1261.754 1344.377,1226.329 1367.983,1188.000 1419.658 C 1182.225 1427.444,1175.438 1433.856,1172.918 1433.907 C 1170.397 1433.958,1165.423 1436.039,1161.864 1438.532 C 1157.997 1441.241,1154.672 1441.897,1153.601 1440.163 C 1152.615 1438.568,1149.826 1438.023,1147.404 1438.952 C 1144.982 1439.881,1143.000 1439.147,1143.000 1437.321 C 1143.000 1435.494,1141.119 1434.000,1138.821 1434.000 C 1136.522 1434.000,1133.811 1431.835,1132.796 1429.189 C 1131.742 1426.442,1129.030 1425.114,1126.475 1426.095 C 1124.014 1427.039,1122.000 1426.504,1122.000 1424.906 C 1122.000 1423.308,1119.975 1422.000,1117.500 1422.000 C 1114.167 1422.000,1113.000 1418.500,1113.000 1408.500 C 1113.000 1401.075,1111.672 1395.000,1110.049 1395.000 C 1103.818 1395.000,1117.617 1373.727,1128.534 1366.503 C 1134.840 1362.329,1140.000 1357.586,1140.000 1355.962 C 1140.000 1354.339,1133.410 1357.744,1125.355 1363.531 C 1115.493 1370.617,1107.411 1374.041,1100.605 1374.019 C 1095.047 1374.001,1087.125 1374.171,1083.000 1374.398 C 1070.578 1375.079,1053.012 1372.650,1053.006 1370.250 C 1053.003 1369.013,1046.250 1368.000,1038.000 1368.000 C 1029.750 1368.000,1023.000 1366.650,1023.000 1365.000 C 1023.000 1363.350,1018.275 1362.000,1012.500 1362.000 C 1006.725 1362.000,1002.000 1360.543,1002.000 1358.762 C 1002.000 1356.659,998.582 1356.291,992.250 1357.714 C 986.888 1358.919,981.150 1359.687,979.500 1359.420 C 977.850 1359.154,969.750 1358.238,961.500 1357.385 C 953.250 1356.533,932.045 1353.930,914.378 1351.602 C 896.711 1349.274,871.736 1347.279,858.878 1347.170 C 846.020 1347.060,820.650 1344.403,802.500 1341.266 L 769.500 1335.560 823.500 1335.221 C 902.484 1334.724,968.491 1327.422,1002.000 1315.474 C 1009.425 1312.826,1026.052 1308.643,1038.948 1306.177 C 1051.845 1303.711,1074.579 1297.713,1089.469 1292.847 C 1104.359 1287.981,1120.580 1284.000,1125.517 1284.000 C 1130.453 1284.000,1144.169 1280.741,1155.996 1276.757 C 1195.582 1263.424,1211.283 1260.000,1232.838 1260.000 C 1302.963 1260.000,1410.358 1214.236,1470.158 1158.872 C 1493.101 1137.631,1527.843 1091.518,1540.954 1064.904 C 1552.063 1042.355,1557.291 1023.612,1551.468 1027.211 C 1549.561 1028.390,1548.000 1031.538,1548.000 1034.208 C 1548.000 1043.913,1523.841 1088.120,1504.737 1113.374 C 1473.517 1154.645,1436.297 1185.172,1386.825 1210.085 C 1366.613 1220.263,1363.297 1221.000,1337.708 1221.000 C 1313.655 1221.000,1310.727 1220.444,1314.000 1216.500 C 1317.049 1212.826,1316.873 1212.000,1313.044 1212.000 C 1310.465 1212.000,1307.520 1213.350,1306.500 1215.000 C 1305.460 1216.682,1291.876 1217.940,1275.573 1217.862 L 1246.500 1217.725 1265.721 1208.833 C 1276.293 1203.943,1284.186 1199.186,1283.262 1198.262 C 1282.338 1197.338,1276.388 1199.193,1270.041 1202.385 C 1263.693 1205.577,1253.418 1209.111,1247.207 1210.238 C 1234.886 1212.475,1200.000 1209.475,1200.000 1206.180 C 1200.000 1205.055,1206.750 1202.404,1215.000 1200.290 C 1223.250 1198.176,1230.000 1195.220,1230.000 1193.723 C 1230.000 1190.027,1230.124 1190.002,1206.599 1198.488 C 1189.328 1204.718,1183.510 1205.540,1171.965 1203.384 C 1164.334 1201.958,1155.032 1198.570,1151.295 1195.854 C 1147.558 1193.139,1140.129 1187.898,1134.787 1184.208 C 1129.445 1180.519,1125.058 1176.488,1125.037 1175.250 C 1125.017 1174.013,1130.477 1173.000,1137.172 1173.000 C 1151.983 1173.000,1176.450 1167.155,1174.544 1164.072 C 1173.785 1162.842,1166.039 1163.748,1157.331 1166.083 C 1135.137 1172.036,1101.694 1170.110,1096.173 1162.560 C 1093.878 1159.421,1092.000 1156.002,1092.000 1154.961 C 1092.000 1153.921,1100.854 1151.222,1111.676 1148.963 C 1122.498 1146.705,1132.149 1143.569,1133.122 1141.994 C 1134.191 1140.263,1131.450 1139.924,1126.196 1141.137 C 1091.628 1149.113,1071.258 1146.203,1057.835 1131.370 C 1051.282 1124.130,1052.340 1123.488,1075.379 1120.726 C 1083.562 1119.745,1091.662 1117.536,1093.379 1115.818 C 1095.543 1113.651,1092.359 1113.430,1083.000 1115.096 C 1075.575 1116.418,1062.500 1117.500,1053.946 1117.500 C 1040.824 1117.500,1036.953 1116.122,1029.196 1108.689 C 1015.039 1095.124,1016.935 1092.000,1039.323 1092.000 C 1050.480 1092.000,1059.534 1090.564,1060.746 1088.601 C 1062.272 1086.132,1058.208 1085.782,1045.886 1087.322 C 1026.073 1089.797,1010.149 1085.582,1003.509 1076.103 C 996.867 1066.619,997.818 1065.022,1010.250 1064.789 C 1016.438 1064.673,1024.200 1063.440,1027.500 1062.050 C 1031.441 1060.389,1026.466 1059.689,1013.001 1060.011 C 994.627 1060.449,991.891 1059.747,986.602 1053.233 C 983.356 1049.236,981.106 1042.647,981.601 1038.590 C 982.457 1031.563,983.526 1031.194,1004.151 1030.806 C 1016.193 1030.580,1027.366 1028.834,1029.328 1026.872 C 1032.030 1024.170,1028.960 1023.747,1016.194 1025.065 C 992.897 1027.469,984.741 1024.757,978.988 1012.694 C 972.992 1000.120,975.374 993.000,985.577 993.000 C 997.160 993.000,1020.142 986.658,1018.455 983.927 C 1017.646 982.618,1009.950 983.403,1001.354 985.671 C 992.757 987.938,982.488 988.982,978.535 987.990 C 972.285 986.421,971.559 984.878,972.973 976.164 C 974.883 964.395,989.870 929.485,994.382 926.296 C 996.097 925.084,1003.802 924.071,1011.505 924.046 C 1026.158 923.998,1035.000 921.818,1035.000 918.252 C 1035.000 915.705,994.461 919.743,989.548 922.780 C 987.268 924.188,986.890 923.605,988.449 921.083 C 989.755 918.969,1010.551 904.396,1034.662 888.698 C 1063.593 869.863,1085.813 852.730,1100.005 838.316 C 1129.700 808.156,1154.508 794.984,1204.267 782.958 C 1250.788 771.715,1253.770 770.778,1248.876 768.943 C 1245.679 767.744,1181.280 782.186,1165.500 787.640 C 1162.200 788.781,1164.900 785.934,1171.500 781.313 C 1214.627 751.121,1278.521 695.541,1304.060 666.000 C 1372.245 587.134,1412.480 493.450,1443.182 342.066 C 1463.905 239.884,1486.046 200.088,1536.349 174.602 C 1570.837 157.129,1621.369 151.215,1656.961 160.486 M1627.736 221.689 C 1641.229 227.817,1653.000 240.730,1653.000 249.405 C 1653.000 252.482,1654.350 255.000,1656.000 255.000 C 1663.875 255.000,1654.194 235.062,1640.878 223.857 C 1635.742 219.536,1627.931 216.030,1623.520 216.066 C 1616.305 216.125,1616.728 216.689,1627.736 221.689 M1605.499 229.788 C 1590.642 240.195,1605.894 267.438,1624.029 262.886 C 1641.023 258.621,1646.384 242.250,1634.434 231.117 C 1626.559 223.780,1614.845 223.242,1605.499 229.788 M1521.750 233.036 C 1506.656 236.125,1516.555 238.435,1540.613 237.437 C 1570.770 236.187,1587.000 238.625,1587.000 244.406 C 1587.000 250.432,1600.934 266.022,1607.964 267.860 C 1616.855 270.185,1615.271 266.245,1604.954 260.374 C 1595.735 255.128,1589.034 243.028,1591.608 236.276 C 1592.704 233.402,1585.343 232.399,1560.774 232.077 C 1543.023 231.844,1525.463 232.276,1521.750 233.036 M1608.961 236.649 C 1607.253 243.179,1618.327 252.454,1624.844 249.953 C 1631.038 247.576,1629.873 240.952,1622.332 235.670 L 1615.665 231.000 1622.162 231.000 C 1625.736 231.000,1630.743 233.975,1633.290 237.611 C 1637.239 243.249,1637.321 245.125,1633.844 250.361 C 1627.574 259.804,1610.990 258.745,1605.260 248.536 C 1601.534 241.897,1601.451 239.776,1604.762 235.786 C 1609.916 229.577,1610.765 229.751,1608.961 236.649 M1662.000 252.003 C 1662.000 255.906,1686.395 279.605,1688.375 277.625 C 1690.070 275.930,1667.763 249.724,1664.250 249.283 C 1663.013 249.127,1662.000 250.351,1662.000 252.003 M1641.722 257.959 C 1639.675 261.237,1638.000 264.692,1638.000 265.636 C 1638.000 268.817,1643.941 263.716,1647.089 257.833 C 1651.196 250.160,1646.524 250.270,1641.722 257.959 M1759.095 270.218 C 1763.443 273.637,1767.000 277.369,1767.000 278.509 C 1767.000 281.298,1739.716 294.058,1733.823 294.026 C 1716.170 293.929,1714.523 272.334,1731.788 267.346 C 1746.612 263.064,1750.524 263.476,1759.095 270.218 M1776.949 294.750 C 1780.921 298.463,1791.634 307.866,1800.756 315.647 C 1809.878 323.428,1818.769 333.891,1820.515 338.897 C 1824.632 350.709,1820.219 350.542,1811.689 338.563 C 1806.979 331.949,1795.700 324.787,1773.985 314.621 C 1756.943 306.643,1743.000 299.479,1743.000 298.699 C 1743.000 297.920,1750.088 297.869,1758.750 298.586 L 1774.500 299.889 1762.534 295.933 C 1754.761 293.364,1752.133 291.364,1755.034 290.226 C 1763.718 286.819,1769.810 288.077,1776.949 294.750 M1530.000 348.000 C 1526.122 350.506,1526.201 350.914,1530.573 350.954 C 1533.363 350.979,1536.480 349.650,1537.500 348.000 C 1539.847 344.203,1535.875 344.203,1530.000 348.000 M1546.407 351.151 C 1543.652 355.609,1545.843 357.187,1550.657 354.212 C 1553.236 352.618,1553.543 351.072,1551.528 349.826 C 1549.815 348.768,1547.511 349.364,1546.407 351.151 M1563.000 375.000 C 1561.234 378.300,1560.862 381.000,1562.173 381.000 C 1563.484 381.000,1566.243 378.300,1568.304 375.000 C 1570.379 371.676,1570.748 369.000,1569.131 369.000 C 1567.525 369.000,1564.766 371.700,1563.000 375.000 M1575.120 376.356 C 1573.131 378.752,1571.954 382.795,1572.502 385.340 C 1573.192 388.541,1575.076 387.199,1578.610 380.984 C 1583.875 371.729,1581.535 368.626,1575.120 376.356 M1629.000 394.500 C 1629.000 416.008,1633.381 416.004,1633.890 394.495 C 1634.104 385.423,1633.092 378.000,1631.640 378.000 C 1630.188 378.000,1629.000 385.425,1629.000 394.500 M1602.000 428.500 C 1602.000 435.375,1603.265 441.000,1604.811 441.000 C 1606.369 441.000,1606.848 435.982,1605.887 429.750 C 1603.483 414.172,1602.000 413.695,1602.000 428.500 M1218.616 738.750 C 1216.901 740.813,1204.355 750.600,1190.736 760.500 C 1177.117 770.400,1162.493 781.859,1158.237 785.964 C 1153.982 790.069,1142.400 798.657,1132.500 805.047 C 1122.600 811.437,1104.787 826.418,1092.916 838.338 C 1080.923 850.379,1058.925 867.773,1043.416 877.479 C 1028.062 887.086,1011.024 898.245,1005.553 902.277 C 1000.082 906.308,995.067 909.067,994.409 908.409 C 993.751 907.751,1005.343 894.201,1020.170 878.299 C 1045.002 851.666,1082.024 821.574,1111.500 804.066 C 1118.100 800.146,1134.300 788.771,1147.500 778.789 C 1170.747 761.209,1213.569 735.000,1219.045 735.000 C 1220.524 735.000,1220.331 736.688,1218.616 738.750 M1321.281 757.436 C 1318.101 759.841,1316.850 761.831,1318.500 761.859 C 1322.958 761.932,1330.577 756.577,1328.694 754.694 C 1327.796 753.796,1324.461 755.030,1321.281 757.436 M1296.000 759.000 C 1296.000 760.650,1297.350 762.000,1299.000 762.000 C 1300.650 762.000,1302.000 760.650,1302.000 759.000 C 1302.000 757.350,1300.650 756.000,1299.000 756.000 C 1297.350 756.000,1296.000 757.350,1296.000 759.000 M1308.000 759.177 C 1308.000 760.924,1309.350 761.520,1311.000 760.500 C 1312.650 759.480,1314.000 758.051,1314.000 757.323 C 1314.000 756.595,1312.650 756.000,1311.000 756.000 C 1309.350 756.000,1308.000 757.430,1308.000 759.177 M1362.314 759.255 C 1358.362 760.835,1355.784 762.784,1356.585 763.585 C 1358.913 765.913,1377.000 761.519,1377.000 758.625 C 1377.000 755.319,1371.571 755.552,1362.314 759.255 M1393.500 765.000 C 1392.480 766.650,1393.751 768.000,1396.323 768.000 C 1398.895 768.000,1401.000 766.650,1401.000 765.000 C 1401.000 763.350,1399.730 762.000,1398.177 762.000 C 1396.624 762.000,1394.520 763.350,1393.500 765.000 M1405.500 768.000 C 1404.480 769.650,1405.751 771.000,1408.323 771.000 C 1410.895 771.000,1413.000 769.650,1413.000 768.000 C 1413.000 766.350,1411.730 765.000,1410.177 765.000 C 1408.624 765.000,1406.520 766.350,1405.500 768.000 M1450.719 778.564 C 1447.539 780.970,1445.889 783.889,1447.052 785.052 C 1448.215 786.215,1452.129 784.204,1455.750 780.583 C 1463.122 773.211,1459.641 771.814,1450.719 778.564 M1459.500 783.000 C 1456.514 786.300,1455.420 789.000,1457.070 789.000 C 1458.720 789.000,1462.514 786.300,1465.500 783.000 C 1468.486 779.700,1469.580 777.000,1467.930 777.000 C 1466.280 777.000,1462.486 779.700,1459.500 783.000 M1491.000 802.677 C 1491.000 805.249,1492.372 806.506,1494.049 805.470 C 1495.726 804.433,1496.321 802.329,1495.372 800.793 C 1492.800 796.632,1491.000 797.407,1491.000 802.677 M1506.000 820.677 C 1506.000 823.249,1507.372 824.506,1509.049 823.470 C 1510.726 822.433,1511.321 820.329,1510.372 818.793 C 1507.800 814.632,1506.000 815.407,1506.000 820.677 M1521.000 841.323 C 1521.000 843.701,1522.350 846.480,1524.000 847.500 C 1525.650 848.520,1527.000 846.574,1527.000 843.177 C 1527.000 839.780,1525.650 837.000,1524.000 837.000 C 1522.350 837.000,1521.000 838.945,1521.000 841.323 M1536.000 852.177 C 1536.000 855.574,1537.350 857.520,1539.000 856.500 C 1540.650 855.480,1542.000 852.701,1542.000 850.323 C 1542.000 847.945,1540.650 846.000,1539.000 846.000 C 1537.350 846.000,1536.000 848.780,1536.000 852.177 M1544.360 870.000 C 1543.634 874.950,1544.155 879.000,1545.520 879.000 C 1546.884 879.000,1548.000 874.950,1548.000 870.000 C 1548.000 865.050,1547.478 861.000,1546.840 861.000 C 1546.203 861.000,1545.087 865.050,1544.360 870.000 M1180.892 911.421 C 1175.759 919.612,1184.580 939.000,1193.441 939.000 C 1197.336 939.000,1197.206 938.312,1192.683 935.005 C 1189.678 932.808,1186.349 925.720,1185.284 919.255 C 1184.001 911.464,1182.520 908.822,1180.892 911.421 M937.083 915.750 C 935.833 917.813,930.203 925.945,924.572 933.823 C 909.706 954.617,894.006 961.718,904.218 943.029 C 911.330 930.013,915.671 925.329,927.053 918.391 C 939.237 910.964,940.123 910.730,937.083 915.750 M1040.401 937.524 C 1024.277 962.007,1023.628 971.747,1034.563 1025.128 C 1037.210 1038.052,1046.234 1054.766,1049.046 1051.954 C 1049.907 1051.093,1048.449 1047.300,1045.806 1043.526 C 1039.755 1034.887,1039.667 1022.281,1045.577 1010.851 C 1050.378 1001.567,1046.441 998.171,1041.374 1007.225 C 1036.990 1015.059,1034.024 1009.720,1034.255 994.409 C 1034.466 980.466,1040.632 967.634,1050.510 960.580 C 1053.530 958.424,1056.000 955.339,1056.000 953.724 C 1056.000 948.385,1043.877 957.073,1037.557 966.941 L 1031.435 976.500 1033.056 965.083 C 1033.947 958.804,1039.475 946.988,1045.338 938.826 C 1056.461 923.344,1057.553 921.000,1053.641 921.000 C 1052.344 921.000,1046.386 928.436,1040.401 937.524 M1669.734 924.321 C 1667.273 931.632,1662.034 952.407,1662.017 954.927 C 1662.008 956.262,1663.214 956.604,1664.699 955.686 C 1668.140 953.559,1675.261 924.261,1672.909 921.909 C 1671.937 920.937,1670.508 922.022,1669.734 924.321 M1683.200 939.200 C 1681.231 949.210,1676.330 967.477,1672.310 979.793 C 1664.295 1004.344,1663.006 1013.685,1669.244 1002.000 C 1673.534 993.965,1687.362 946.856,1690.157 930.750 C 1693.255 912.905,1686.840 920.697,1683.200 939.200 M1562.271 936.000 C 1561.067 940.125,1560.105 946.200,1560.132 949.500 C 1560.179 955.068,1560.406 955.117,1563.283 950.173 C 1564.988 947.244,1565.951 941.169,1565.422 936.673 L 1564.459 928.500 1562.271 936.000 M1080.600 954.600 C 1076.336 958.864,1075.942 971.682,1079.883 977.913 C 1084.146 984.654,1086.965 979.408,1083.030 972.056 C 1080.280 966.917,1080.550 964.107,1084.356 958.299 C 1089.323 950.718,1086.884 948.316,1080.600 954.600 M1240.892 961.439 C 1244.609 971.126,1272.746 983.101,1280.511 978.302 C 1283.098 976.703,1280.110 975.268,1271.902 974.167 C 1264.177 973.131,1256.216 969.497,1251.251 964.741 C 1242.176 956.046,1238.355 954.829,1240.892 961.439 M1558.833 979.242 C 1557.839 983.202,1556.115 988.814,1555.003 991.713 C 1553.707 995.090,1554.135 996.270,1556.195 994.998 C 1560.723 992.199,1566.157 975.451,1563.141 973.587 C 1561.765 972.737,1559.827 975.282,1558.833 979.242 M855.000 980.650 C 855.000 984.418,844.401 987.379,822.750 989.660 C 802.452 991.799,798.138 989.291,813.750 984.428 C 834.570 977.943,855.000 976.071,855.000 980.650 M899.042 987.339 C 898.115 990.883,899.122 993.000,901.734 993.000 C 904.028 993.000,910.314 997.010,915.703 1001.912 L 925.500 1010.824 913.713 1010.912 C 898.932 1011.022,882.000 1005.076,882.000 999.776 C 882.000 993.762,894.535 977.976,897.738 979.956 C 899.270 980.903,899.856 984.225,899.042 987.339 M1380.000 985.466 C 1380.000 990.832,1387.140 999.435,1394.940 1003.469 C 1405.117 1008.732,1410.000 1009.228,1410.000 1005.000 C 1410.000 1003.350,1407.404 1002.000,1404.231 1002.000 C 1401.058 1002.000,1394.308 997.846,1389.231 992.769 C 1384.154 987.692,1380.000 984.406,1380.000 985.466 M895.500 1013.040 C 903.452 1015.102,924.678 1049.092,925.138 1060.500 C 925.441 1068.046,924.255 1069.645,917.794 1070.397 C 907.657 1071.576,863.849 1055.602,859.855 1049.269 C 857.563 1045.636,858.159 1041.295,862.101 1032.912 C 872.162 1011.519,875.957 1007.261,883.005 1009.459 C 886.577 1010.573,892.200 1012.184,895.500 1013.040 M1087.217 1015.558 C 1086.174 1019.715,1086.854 1026.819,1088.729 1031.345 C 1093.282 1042.338,1105.976 1057.981,1108.397 1055.584 C 1109.462 1054.530,1106.850 1049.910,1102.594 1045.318 C 1093.819 1035.850,1090.670 1026.298,1092.745 1015.445 C 1094.613 1005.671,1089.673 1005.773,1087.217 1015.558 M804.000 1016.633 C 804.000 1018.081,801.975 1020.946,799.500 1023.000 C 794.022 1027.547,793.686 1035.449,798.750 1040.656 C 801.799 1043.791,799.136 1044.113,784.500 1042.381 C 756.198 1039.032,755.960 1036.768,782.464 1023.084 C 800.958 1013.536,804.000 1012.625,804.000 1016.633 M1119.360 1029.256 C 1116.883 1036.362,1117.128 1040.892,1120.414 1048.756 C 1122.768 1054.390,1126.189 1059.000,1128.017 1059.000 C 1130.017 1059.000,1129.261 1055.482,1126.117 1050.160 C 1121.803 1042.857,1121.464 1039.467,1124.167 1030.660 C 1128.173 1017.607,1123.860 1016.348,1119.360 1029.256 M756.776 1041.750 C 758.680 1047.346,753.094 1065.410,746.660 1074.463 C 743.547 1078.843,741.000 1083.036,741.000 1083.782 C 741.000 1084.528,750.788 1086.033,762.750 1087.126 C 776.609 1088.392,790.221 1091.897,800.267 1096.786 C 815.087 1103.997,824.767 1114.233,820.656 1118.344 C 817.409 1121.591,742.780 1112.828,735.974 1108.401 C 730.320 1104.722,729.457 1101.441,729.514 1083.828 C 729.562 1068.926,731.166 1060.902,735.523 1053.769 C 743.833 1040.162,754.234 1034.280,756.776 1041.750 M1062.000 1052.552 C 1062.000 1065.545,1067.251 1083.000,1071.160 1083.000 C 1072.576 1083.000,1071.726 1077.308,1069.271 1070.351 C 1066.808 1063.371,1065.630 1053.960,1066.643 1049.351 C 1067.765 1044.241,1067.220 1041.000,1065.238 1041.000 C 1063.457 1041.000,1062.000 1046.199,1062.000 1052.552 M1284.000 1063.239 C 1284.000 1071.916,1309.116 1089.000,1321.872 1089.000 C 1329.488 1089.000,1323.648 1083.880,1313.781 1081.906 C 1308.642 1080.878,1299.839 1075.439,1294.219 1069.819 C 1288.598 1064.198,1284.000 1061.237,1284.000 1063.239 M1087.891 1071.750 C 1084.165 1085.654,1085.958 1096.915,1092.943 1103.477 C 1096.762 1107.065,1101.630 1110.000,1103.761 1110.000 C 1105.891 1110.000,1103.296 1105.947,1097.994 1100.994 C 1088.172 1091.819,1087.942 1090.118,1093.845 1070.250 C 1094.702 1067.363,1094.121 1065.000,1092.552 1065.000 C 1090.983 1065.000,1088.886 1068.038,1087.891 1071.750 M901.227 1072.532 C 909.327 1074.990,920.363 1077.000,925.751 1077.000 C 933.358 1077.000,938.232 1079.820,947.547 1089.610 C 959.880 1102.571,973.966 1127.034,970.877 1130.123 C 969.921 1131.079,952.571 1132.004,932.320 1132.180 C 900.269 1132.459,894.140 1131.704,885.000 1126.354 C 876.982 1121.661,874.277 1117.924,873.555 1110.542 C 872.546 1100.214,880.720 1067.978,884.334 1068.032 C 885.525 1068.050,893.127 1070.075,901.227 1072.532 M1149.000 1069.649 C 1149.000 1070.556,1150.975 1075.117,1153.389 1079.785 C 1158.112 1088.918,1163.701 1092.158,1173.995 1091.729 C 1178.606 1091.538,1177.567 1090.615,1170.425 1088.560 C 1163.380 1086.532,1159.348 1083.005,1157.018 1076.830 C 1154.153 1069.241,1149.000 1064.626,1149.000 1069.649 M719.893 1075.126 C 715.548 1079.206,668.843 1095.843,666.976 1093.976 C 665.921 1092.921,716.682 1071.757,721.393 1071.288 C 722.984 1071.130,722.309 1072.856,719.893 1075.126 M724.567 1088.604 C 722.956 1098.141,723.844 1101.646,729.553 1108.281 C 736.014 1115.790,739.476 1116.695,779.084 1121.232 C 802.505 1123.915,820.998 1127.194,820.180 1128.518 C 819.361 1129.843,824.853 1137.514,832.384 1145.566 L 846.078 1160.205 819.586 1163.603 C 805.015 1165.471,788.460 1166.984,782.797 1166.964 C 766.571 1166.908,741.453 1159.130,728.492 1150.148 C 713.861 1140.009,700.682 1118.661,703.101 1109.020 C 704.899 1101.859,721.731 1077.000,724.783 1077.000 C 725.742 1077.000,725.645 1082.222,724.567 1088.604 M1190.065 1082.086 C 1186.092 1088.514,1206.248 1116.752,1211.243 1111.757 C 1212.457 1110.543,1210.971 1108.162,1207.940 1106.467 C 1204.910 1104.771,1200.018 1097.994,1197.068 1091.407 C 1194.119 1084.819,1190.968 1080.625,1190.065 1082.086 M1228.772 1086.626 C 1223.568 1098.128,1242.905 1128.489,1250.344 1120.496 C 1251.530 1119.221,1250.659 1117.525,1248.409 1116.726 C 1241.032 1114.105,1234.530 1104.102,1232.796 1092.701 C 1231.515 1084.283,1230.515 1082.774,1228.772 1086.626 M705.218 1093.905 C 701.798 1098.252,699.000 1103.436,699.000 1105.424 C 699.000 1107.413,693.263 1110.822,686.250 1113.001 C 679.238 1115.180,664.725 1121.356,654.000 1126.727 C 642.440 1132.516,621.674 1139.124,603.000 1142.955 C 568.134 1150.108,507.005 1164.898,477.197 1173.392 C 466.580 1176.418,457.468 1178.468,456.949 1177.949 C 456.431 1177.431,469.842 1171.498,486.753 1164.765 C 518.361 1152.182,545.237 1143.992,628.500 1121.568 C 654.900 1114.458,674.267 1108.198,671.539 1107.656 C 668.810 1107.114,646.086 1112.258,621.040 1119.087 C 595.995 1125.916,574.953 1130.953,574.280 1130.280 C 572.254 1128.254,648.234 1100.452,652.005 1101.841 C 653.927 1102.549,666.975 1099.416,681.000 1094.878 C 713.178 1084.468,712.623 1084.490,705.218 1093.905 M1117.437 1095.781 C 1114.734 1110.189,1120.248 1121.574,1132.385 1126.645 C 1144.160 1131.565,1152.000 1132.260,1152.000 1128.383 C 1152.000 1126.944,1146.643 1124.910,1140.095 1123.863 C 1125.717 1121.564,1120.689 1113.885,1122.878 1097.568 C 1124.757 1083.552,1120.023 1081.997,1117.437 1095.781 M1169.250 1111.716 C 1165.964 1115.051,1166.501 1126.622,1170.331 1135.028 C 1175.902 1147.256,1195.267 1152.546,1210.500 1146.000 C 1214.843 1144.134,1211.864 1143.363,1199.715 1143.211 C 1179.871 1142.962,1173.915 1138.098,1172.472 1120.966 C 1171.937 1114.622,1170.488 1110.459,1169.250 1111.716 M698.973 1115.250 C 698.957 1116.488,695.625 1124.250,691.566 1132.500 C 671.429 1173.436,687.891 1185.442,763.500 1184.963 C 783.300 1184.838,803.550 1185.934,808.500 1187.400 L 817.500 1190.064 808.500 1191.932 C 790.687 1195.627,693.174 1200.687,661.999 1199.533 C 624.859 1198.158,620.549 1195.874,627.554 1181.280 C 635.211 1165.329,659.943 1137.371,677.552 1124.761 C 693.734 1113.174,699.027 1110.824,698.973 1115.250 M630.000 1125.402 C 594.125 1135.177,576.000 1141.176,576.000 1143.275 C 576.000 1144.596,583.088 1143.626,591.750 1141.121 C 639.391 1127.340,648.000 1124.623,648.000 1123.373 C 648.000 1121.430,642.161 1122.089,630.000 1125.402 M733.618 1158.639 C 741.803 1163.116,754.575 1167.576,762.000 1168.550 C 769.425 1169.524,779.550 1172.188,784.500 1174.469 C 792.734 1178.263,790.307 1178.627,756.000 1178.737 C 688.538 1178.953,679.116 1172.437,694.394 1136.133 L 699.178 1124.767 708.957 1137.633 C 714.336 1144.710,725.433 1154.163,733.618 1158.639 M650.036 1143.038 C 634.187 1160.665,618.000 1184.367,618.000 1189.945 C 618.000 1192.099,621.519 1196.167,625.820 1198.985 C 637.310 1206.514,672.018 1207.293,749.892 1201.770 L 817.284 1196.991 830.892 1210.325 C 838.377 1217.658,848.213 1225.052,852.750 1226.755 C 857.288 1228.458,861.001 1230.897,861.002 1232.176 C 861.002 1233.454,801.343 1234.072,728.425 1233.549 C 573.367 1232.438,565.608 1231.172,580.806 1209.474 C 586.667 1201.106,583.241 1196.142,577.255 1204.328 C 569.651 1214.727,571.863 1226.258,582.518 1231.768 C 590.821 1236.061,609.113 1236.832,725.768 1237.804 C 799.321 1238.416,863.043 1239.681,867.373 1240.614 C 871.704 1241.548,878.351 1245.616,882.146 1249.656 L 889.046 1257.000 877.273 1257.039 C 870.798 1257.061,825.000 1254.836,775.500 1252.095 C 679.586 1246.784,607.869 1248.785,548.386 1258.432 C 534.023 1260.761,517.276 1261.856,511.170 1260.865 C 504.025 1259.706,500.736 1260.146,501.944 1262.100 C 503.050 1263.891,528.779 1265.844,564.660 1266.861 C 598.122 1267.809,649.125 1271.462,678.000 1274.979 C 732.603 1281.628,823.201 1283.453,891.006 1279.269 C 919.364 1277.519,923.561 1277.936,933.006 1283.442 C 938.778 1286.807,948.741 1290.518,955.147 1291.688 C 979.566 1296.151,958.433 1299.659,866.997 1306.323 C 825.652 1309.336,792.745 1309.697,737.997 1307.737 C 670.539 1305.323,563.860 1295.214,556.558 1290.543 C 554.876 1289.467,498.150 1287.729,430.500 1286.680 C 303.488 1284.711,280.500 1282.441,280.500 1271.868 C 280.500 1267.363,309.217 1246.510,319.026 1243.892 C 324.027 1242.557,324.118 1242.897,319.985 1247.464 C 313.028 1255.151,309.537 1266.818,312.193 1273.500 C 314.139 1278.394,314.617 1277.703,314.789 1269.750 C 315.166 1252.316,342.338 1231.326,394.500 1208.174 L 406.500 1202.848 396.000 1211.157 C 382.743 1221.648,368.729 1236.729,370.547 1238.547 C 371.310 1239.310,379.156 1233.103,387.984 1224.754 C 401.868 1211.622,436.196 1190.714,443.164 1191.144 C 444.449 1191.224,437.602 1195.364,427.950 1200.344 C 401.660 1213.909,409.561 1214.001,438.847 1200.471 C 452.907 1193.974,469.606 1186.949,475.956 1184.857 C 482.305 1182.766,488.850 1179.340,490.500 1177.245 C 492.965 1174.114,549.584 1158.517,586.500 1150.799 C 604.907 1146.951,585.356 1155.205,561.754 1161.246 C 524.886 1170.683,507.000 1176.617,507.000 1179.411 C 507.000 1182.712,507.855 1182.667,517.923 1178.839 C 528.829 1174.693,568.204 1163.796,566.644 1165.356 C 565.978 1166.022,555.323 1173.208,542.966 1181.325 C 522.125 1195.016,506.114 1209.000,511.280 1209.000 C 512.496 1209.000,519.117 1204.433,525.995 1198.852 C 547.407 1181.476,570.061 1168.861,573.563 1172.363 C 575.747 1174.547,582.749 1172.243,596.601 1164.781 L 616.500 1154.061 603.187 1167.968 C 582.596 1189.477,590.765 1187.680,612.532 1165.912 C 628.374 1150.070,657.384 1128.000,662.365 1128.000 C 663.020 1128.000,657.472 1134.767,650.036 1143.038 M982.196 1147.384 C 988.138 1153.684,993.000 1159.178,993.000 1159.591 C 993.000 1162.949,939.530 1173.778,923.123 1173.743 C 900.291 1173.694,892.661 1169.393,889.446 1154.756 C 885.358 1136.141,886.810 1135.478,931.165 1135.714 L 971.392 1135.929 982.196 1147.384 M623.918 1148.227 C 619.838 1151.101,615.464 1153.119,614.198 1152.710 C 612.933 1152.300,603.684 1156.112,593.645 1161.179 C 573.202 1171.499,566.559 1171.394,584.122 1161.029 C 607.194 1147.412,640.093 1136.829,623.918 1148.227 M1221.457 1162.712 C 1222.112 1166.143,1225.536 1168.922,1229.867 1169.535 C 1239.360 1170.881,1272.000 1163.951,1272.000 1160.590 C 1272.000 1157.293,1269.032 1157.326,1258.198 1160.743 C 1239.595 1166.610,1230.353 1166.925,1225.293 1161.864 C 1220.706 1157.278,1220.432 1157.338,1221.457 1162.712 M862.600 1176.193 C 867.745 1186.143,866.954 1186.780,848.302 1187.727 C 828.806 1188.716,802.714 1182.867,796.630 1176.143 C 791.764 1170.767,792.510 1170.503,818.044 1168.568 C 832.595 1167.465,845.850 1166.185,847.500 1165.723 C 853.098 1164.157,858.209 1167.701,862.600 1176.193 M996.296 1176.317 C 1001.083 1181.442,1005.000 1186.057,1005.000 1186.573 C 1005.000 1187.089,995.888 1190.582,984.750 1194.336 C 948.582 1206.525,921.772 1202.750,917.080 1184.806 C 915.760 1179.760,917.193 1178.991,928.031 1178.931 C 934.889 1178.894,949.950 1176.316,961.500 1173.202 C 988.787 1165.847,986.308 1165.625,996.296 1176.317 M450.000 1182.000 C 447.525 1183.599,444.150 1184.908,442.500 1184.908 C 440.850 1184.908,441.525 1183.599,444.000 1182.000 C 446.475 1180.401,449.850 1179.092,451.500 1179.092 C 453.150 1179.092,452.475 1180.401,450.000 1182.000 M454.500 1198.139 C 426.320 1209.737,403.932 1220.932,405.595 1222.595 C 406.532 1223.532,450.857 1205.806,484.500 1191.040 L 490.500 1188.406 484.500 1188.333 C 481.200 1188.293,467.700 1192.706,454.500 1198.139 M876.227 1198.907 C 880.227 1203.255,888.765 1210.680,895.200 1215.407 L 906.900 1224.000 882.253 1224.000 C 856.071 1224.000,849.540 1221.936,835.992 1209.383 C 818.152 1192.853,819.097 1191.000,845.372 1191.000 C 867.010 1191.000,869.554 1191.652,876.227 1198.907 M1021.260 1199.350 C 1027.727 1203.832,1033.509 1208.983,1034.108 1210.796 C 1035.412 1214.743,1000.187 1226.781,980.501 1229.116 C 961.467 1231.373,952.712 1228.643,948.361 1219.094 C 944.285 1210.149,947.270 1206.264,958.500 1205.895 C 961.800 1205.786,973.950 1202.525,985.500 1198.648 C 997.050 1194.771,1007.175 1191.509,1008.000 1191.399 C 1008.825 1191.289,1014.792 1194.867,1021.260 1199.350 M497.405 1219.202 C 494.604 1223.060,491.502 1230.105,490.514 1234.858 C 488.851 1242.852,489.175 1242.671,494.830 1232.444 C 498.193 1226.364,502.307 1220.547,503.972 1219.517 C 507.491 1217.342,508.056 1211.956,504.750 1212.094 C 503.513 1212.146,500.207 1215.345,497.405 1219.202 M1078.108 1230.000 C 1085.212 1230.000,1089.024 1231.086,1087.350 1232.633 C 1083.153 1236.511,1026.039 1257.000,1019.426 1257.000 C 1011.887 1257.000,992.826 1247.105,986.155 1239.728 C 980.917 1233.936,981.156 1233.748,998.155 1230.327 C 1007.695 1228.407,1020.779 1224.466,1027.231 1221.569 C 1038.718 1216.413,1039.244 1216.446,1052.490 1223.152 C 1059.930 1226.918,1071.458 1230.000,1078.108 1230.000 M1332.742 1234.756 C 1313.297 1243.260,1265.057 1253.998,1246.922 1253.860 L 1228.500 1253.719 1243.500 1247.685 C 1251.750 1244.366,1271.325 1240.373,1287.000 1238.812 C 1302.675 1237.250,1320.225 1234.767,1326.000 1233.293 C 1341.362 1229.374,1343.828 1229.909,1332.742 1234.756 M1099.500 1239.000 C 1100.520 1240.650,1104.987 1242.021,1109.427 1242.046 C 1120.920 1242.111,1127.199 1246.477,1120.002 1249.398 C 1094.216 1259.863,1070.602 1265.994,1056.225 1265.954 C 1037.672 1265.903,1026.788 1261.812,1035.903 1258.314 C 1098.500 1234.293,1096.893 1234.781,1099.500 1239.000 M1169.727 1246.154 L 1179.953 1249.851 1163.727 1256.846 C 1118.147 1276.494,1092.400 1281.841,1081.557 1273.913 C 1076.436 1270.168,1077.332 1269.374,1092.234 1264.444 C 1101.180 1261.484,1117.275 1255.271,1128.000 1250.638 C 1149.601 1241.308,1154.782 1240.751,1169.727 1246.154 M1210.500 1254.405 C 1148.489 1274.919,1138.038 1277.990,1130.946 1277.781 C 1125.503 1277.621,1127.534 1276.093,1138.500 1272.101 C 1146.750 1269.098,1164.300 1261.866,1177.500 1256.029 C 1196.333 1247.701,1205.375 1245.423,1219.500 1245.445 L 1237.500 1245.474 1210.500 1254.405 M368.871 1253.760 C 374.554 1264.378,389.906 1266.716,438.891 1264.424 C 463.976 1263.250,486.525 1261.140,489.000 1259.736 C 495.101 1256.274,464.581 1256.362,430.926 1259.902 C 401.455 1263.002,378.755 1260.194,373.332 1252.778 C 368.435 1246.081,365.149 1246.805,368.871 1253.760 M784.500 1257.304 C 897.347 1263.837,905.775 1264.562,909.247 1268.041 C 915.779 1274.585,891.871 1276.448,804.000 1276.242 C 735.270 1276.081,708.203 1274.764,666.000 1269.525 C 637.125 1265.941,604.838 1263.007,594.250 1263.004 C 583.663 1263.002,576.006 1261.988,577.236 1260.750 C 583.269 1254.681,704.401 1252.667,784.500 1257.304 M435.898 1296.124 C 443.816 1297.706,454.954 1299.000,460.648 1299.000 C 477.749 1299.000,472.452 1304.028,446.250 1312.669 C 406.091 1325.911,356.165 1344.879,297.429 1369.210 C 233.248 1395.796,205.430 1404.794,191.545 1403.460 C 178.852 1402.241,177.350 1395.609,187.135 1383.981 C 192.285 1377.860,209.536 1368.555,243.528 1353.564 C 270.462 1341.685,309.198 1322.861,329.606 1311.733 L 366.711 1291.500 394.106 1292.374 C 409.173 1292.855,427.979 1294.542,435.898 1296.124 M598.500 1301.739 C 661.885 1310.936,791.256 1315.533,864.211 1311.179 C 896.501 1309.252,934.976 1305.882,949.711 1303.689 C 970.220 1300.637,979.840 1300.490,990.750 1303.061 C 998.588 1304.909,1005.000 1307.273,1005.000 1308.315 C 1005.000 1312.189,969.291 1320.026,931.518 1324.442 C 889.908 1329.307,769.607 1330.407,729.000 1326.294 C 648.838 1318.174,546.296 1306.316,504.000 1300.274 L 454.500 1293.204 505.500 1294.424 C 534.081 1295.108,574.963 1298.323,598.500 1301.739 M487.350 1304.566 C 485.783 1305.977,471.338 1311.598,455.250 1317.056 C 439.163 1322.513,426.000 1328.253,426.000 1329.810 C 426.000 1331.368,428.363 1331.675,431.250 1330.494 C 434.138 1329.312,451.516 1323.243,469.868 1317.006 C 498.556 1307.257,505.078 1306.022,516.368 1308.202 C 523.591 1309.597,535.575 1310.816,543.000 1310.910 C 550.425 1311.005,559.819 1311.970,563.876 1313.055 C 570.231 1314.754,568.568 1315.954,551.876 1321.718 C 446.763 1358.010,306.372 1405.209,289.500 1409.926 C 236.572 1424.725,186.096 1427.909,171.862 1417.346 C 166.900 1413.663,166.865 1412.996,171.400 1408.390 C 175.348 1404.381,177.546 1404.081,182.715 1406.847 C 195.937 1413.924,216.599 1407.460,335.855 1358.941 C 384.640 1339.093,482.055 1302.936,488.850 1302.155 C 489.593 1302.070,488.918 1303.155,487.350 1304.566 M583.500 1317.000 C 582.480 1318.650,580.038 1319.979,578.073 1319.954 C 575.926 1319.926,576.296 1318.747,579.000 1317.000 C 584.763 1313.275,585.802 1313.275,583.500 1317.000 M598.500 1320.000 C 595.200 1321.418,590.475 1322.578,588.000 1322.578 C 585.164 1322.578,585.718 1321.625,589.500 1320.000 C 592.800 1318.582,597.525 1317.422,600.000 1317.422 C 602.836 1317.422,602.282 1318.375,598.500 1320.000 M572.000 1323.938 C 572.000 1326.316,553.824 1334.239,526.106 1343.945 C 480.067 1360.066,471.462 1363.685,474.087 1365.826 C 474.864 1366.460,503.850 1356.951,538.500 1344.694 C 581.735 1329.401,607.147 1322.020,619.500 1321.170 L 637.500 1319.931 621.000 1325.986 C 611.925 1329.316,602.619 1332.738,600.321 1333.591 C 598.022 1334.444,596.809 1335.809,597.626 1336.626 C 598.442 1337.442,607.748 1335.404,618.305 1332.096 C 637.975 1325.933,668.858 1320.705,665.785 1324.058 C 664.842 1325.087,631.576 1333.353,591.860 1342.426 C 518.703 1359.140,405.046 1388.567,361.387 1402.099 C 288.333 1424.742,216.682 1438.170,205.037 1431.401 C 200.600 1428.822,202.777 1428.159,216.000 1428.064 C 245.023 1427.856,294.919 1414.116,419.694 1371.975 C 486.687 1349.349,547.575 1328.461,555.000 1325.558 C 571.544 1319.091,572.000 1319.047,572.000 1323.938 M1333.481 1338.633 C 1329.434 1347.369,1325.343 1363.360,1324.207 1374.882 C 1322.510 1392.104,1321.132 1395.886,1315.838 1397.855 C 1312.352 1399.151,1307.813 1399.570,1305.750 1398.785 C 1303.688 1398.000,1302.000 1398.871,1302.000 1400.720 C 1302.000 1403.537,1272.980 1419.000,1267.692 1419.000 C 1266.762 1419.000,1266.000 1414.275,1266.000 1408.500 C 1266.000 1402.725,1264.531 1398.000,1262.735 1398.000 C 1259.229 1398.000,1260.606 1362.301,1264.345 1356.252 C 1265.464 1354.440,1270.682 1350.716,1275.940 1347.977 C 1289.682 1340.817,1332.848 1323.284,1337.112 1323.130 C 1339.439 1323.046,1338.146 1328.563,1333.481 1338.633 M1255.176 1378.438 C 1253.468 1395.106,1253.911 1398.154,1258.282 1399.831 C 1262.053 1401.278,1263.135 1404.613,1262.440 1412.644 C 1261.515 1423.326,1261.668 1423.490,1272.000 1422.895 C 1281.462 1422.350,1283.983 1424.077,1297.500 1440.361 C 1305.750 1450.301,1328.363 1473.797,1347.750 1492.575 C 1367.138 1511.353,1383.000 1527.421,1383.000 1528.282 C 1383.000 1529.142,1378.944 1531.943,1373.987 1534.507 C 1365.839 1538.720,1352.157 1541.234,1306.500 1546.908 C 1296.779 1548.116,1288.807 1551.272,1283.848 1555.874 L 1276.195 1562.977 1265.594 1551.739 C 1259.763 1545.557,1249.732 1533.750,1243.302 1525.500 C 1236.873 1517.250,1220.787 1498.947,1207.556 1484.826 C 1171.008 1445.821,1171.490 1448.340,1194.871 1418.511 C 1205.654 1404.755,1218.981 1389.338,1224.488 1384.252 C 1234.177 1375.302,1254.636 1359.101,1256.334 1359.033 C 1256.792 1359.015,1256.271 1367.747,1255.176 1378.438 M1325.058 1417.500 C 1330.038 1431.992,1359.903 1463.128,1403.250 1499.018 C 1420.163 1513.021,1434.000 1525.946,1434.000 1527.739 C 1434.000 1529.533,1434.814 1530.186,1435.808 1529.192 C 1436.803 1528.197,1441.191 1528.783,1445.558 1530.495 C 1470.097 1540.111,1509.133 1545.912,1552.211 1546.346 C 1594.871 1546.776,1597.031 1547.089,1599.283 1553.178 C 1604.083 1566.154,1597.543 1567.088,1536.761 1562.103 C 1503.102 1559.342,1475.076 1555.503,1467.000 1552.545 C 1459.575 1549.827,1450.800 1546.917,1447.500 1546.079 L 1441.500 1544.555 1447.500 1549.409 C 1450.800 1552.080,1460.925 1556.278,1470.000 1558.738 C 1498.465 1566.457,1513.386 1573.336,1514.528 1579.265 C 1515.514 1584.386,1513.898 1584.724,1495.052 1583.341 C 1469.347 1581.454,1440.310 1568.762,1422.131 1551.469 C 1407.980 1538.007,1405.417 1536.547,1408.067 1543.454 C 1410.694 1550.300,1399.185 1554.801,1372.500 1557.364 C 1359.300 1558.632,1340.063 1560.606,1329.750 1561.751 C 1312.058 1563.716,1311.000 1563.479,1311.000 1557.553 C 1311.000 1552.746,1313.289 1550.952,1320.750 1549.910 C 1361.697 1544.188,1371.756 1541.870,1379.469 1536.378 C 1384.258 1532.968,1389.037 1531.037,1390.089 1532.089 C 1391.140 1533.140,1392.000 1532.695,1392.000 1531.100 C 1392.000 1529.506,1379.027 1516.224,1363.171 1501.586 C 1347.315 1486.948,1322.876 1462.094,1308.863 1446.354 L 1283.385 1417.737 1293.261 1414.412 C 1298.693 1412.583,1303.695 1409.416,1304.375 1407.374 C 1305.056 1405.331,1309.061 1404.074,1313.274 1404.580 C 1319.194 1405.291,1321.872 1408.227,1325.058 1417.500 M1123.381 1434.099 C 1126.285 1431.688,1127.754 1432.031,1129.055 1435.423 C 1130.021 1437.941,1132.735 1440.000,1135.085 1440.000 C 1137.435 1440.000,1140.222 1442.251,1141.277 1445.002 C 1142.717 1448.754,1144.053 1449.147,1146.627 1446.573 C 1149.185 1444.015,1151.099 1444.007,1154.156 1446.544 C 1157.215 1449.083,1159.135 1449.065,1161.727 1446.473 C 1167.057 1441.143,1169.436 1442.208,1174.628 1452.247 C 1177.258 1457.334,1189.283 1471.846,1201.351 1484.497 C 1213.418 1497.149,1232.067 1518.656,1242.793 1532.290 C 1264.809 1560.278,1269.779 1564.687,1293.000 1576.828 C 1308.187 1584.768,1312.196 1585.478,1343.380 1585.757 C 1363.017 1585.933,1378.609 1587.409,1380.469 1589.269 C 1384.803 1593.603,1380.541 1599.850,1374.763 1597.632 C 1372.216 1596.655,1361.215 1594.581,1350.316 1593.024 C 1339.417 1591.467,1325.775 1589.384,1320.000 1588.397 C 1311.967 1587.023,1310.659 1587.346,1314.432 1589.771 C 1317.144 1591.515,1329.969 1594.457,1342.932 1596.310 C 1355.894 1598.162,1369.825 1601.769,1373.888 1604.326 C 1378.844 1607.444,1391.188 1609.377,1411.388 1610.198 C 1443.442 1611.501,1458.000 1615.145,1458.000 1621.864 C 1458.000 1626.959,1427.975 1627.417,1396.500 1622.802 C 1384.950 1621.109,1361.865 1618.506,1345.200 1617.017 C 1310.404 1613.910,1291.117 1607.452,1288.313 1597.970 C 1285.238 1587.571,1271.556 1569.000,1266.971 1569.000 C 1264.146 1569.000,1265.186 1571.619,1270.123 1576.944 C 1274.174 1581.313,1279.732 1590.425,1282.473 1597.194 C 1291.715 1620.016,1297.447 1628.391,1310.716 1638.466 C 1334.217 1656.309,1335.874 1668.392,1313.184 1656.463 C 1276.618 1637.239,1256.778 1618.874,1246.102 1594.366 C 1241.461 1583.715,1236.471 1575.000,1235.011 1575.000 C 1233.552 1575.000,1233.331 1577.363,1234.519 1580.250 C 1239.031 1591.210,1239.588 1596.000,1236.350 1596.000 C 1234.507 1596.000,1233.000 1593.766,1233.000 1591.035 C 1233.000 1586.497,1232.549 1586.478,1227.750 1590.821 C 1224.863 1593.433,1216.425 1598.406,1209.000 1601.870 C 1201.575 1605.335,1190.100 1611.484,1183.500 1615.536 C 1171.036 1623.186,1159.610 1624.876,1152.171 1620.169 C 1148.714 1617.982,1148.527 1615.925,1151.240 1609.970 C 1153.880 1604.175,1158.424 1601.664,1171.610 1598.713 C 1180.944 1596.624,1195.538 1590.749,1204.040 1585.658 C 1217.599 1577.539,1219.417 1575.300,1218.826 1567.450 C 1218.455 1562.528,1218.905 1560.188,1219.826 1562.250 C 1221.903 1566.902,1227.000 1567.191,1227.000 1562.657 C 1227.000 1560.818,1204.342 1536.180,1176.648 1507.907 C 1128.824 1459.081,1115.483 1441.615,1116.409 1429.047 C 1116.703 1425.044,1117.185 1425.428,1118.140 1430.425 C 1119.154 1435.731,1120.379 1436.590,1123.381 1434.099 M1308.081 1426.177 C 1307.902 1432.078,1385.410 1516.590,1388.327 1513.673 C 1389.097 1512.903,1376.272 1497.699,1359.826 1479.886 C 1343.380 1462.074,1325.028 1442.100,1319.043 1435.500 C 1313.059 1428.900,1308.126 1424.704,1308.081 1426.177 M1147.828 1458.531 C 1149.028 1460.473,1162.983 1477.090,1178.838 1495.459 C 1194.693 1513.827,1210.684 1532.695,1214.374 1537.386 C 1218.065 1542.078,1221.874 1545.126,1222.839 1544.161 C 1224.852 1542.148,1151.783 1455.000,1148.082 1455.000 C 1146.742 1455.000,1146.628 1456.589,1147.828 1458.531 M1525.500 1539.000 C 1527.628 1542.444,1515.034 1542.444,1501.500 1539.000 C 1493.770 1537.033,1494.697 1536.660,1508.073 1536.355 C 1516.638 1536.160,1524.480 1537.350,1525.500 1539.000 " stroke="none" fill="black" fill-rule="evenodd"/></svg>